# xmcd
#
# Track frame offsets:
#	150
#	11038
#	26760
#	40988
#	53171
#	70017
#	84180
#	102814
#	119063
#	138435
#	156442
#	168855
#	181821
#	194791
#
# Disc length: 2782 seconds
#
# Revision: 1
# Processed by: cddbd v1.5.2PL0 Copyright (c) Steve Scherf et al.
# Submitted via: audiograbber 1.83.01
#
DISCID=bd0adc0e
DTITLE=Jerry Hanlon - What A Beatiful Day That Will Be
DYEAR=2006
DGENRE=Country
TTITLE0=Something In My Heart
TTITLE1=It압 A Sin
TTITLE2=What A Beatiful Day That Will Be
TTITLE3=Tell Her You Love Her Today
TTITLE4=It Is No Secret
TTITLE5=I앐 Leraving Tonight For Illinois
TTITLE6=The Old Rugged Cross
TTITLE7=A Better Day
TTITLE8=All Hubg Over You
TTITLE9=In The Garden
TTITLE10=I았e Never
TTITLE11=Mansion On The Hilltop
TTITLE12=Brain압 Gone Fishin
TTITLE13=This Train Is Bound For Heaven압 Open Door
EXTD=
EXTT0=
EXTT1=
EXTT2=
EXTT3=
EXTT4=
EXTT5=
EXTT6=
EXTT7=
EXTT8=
EXTT9=
EXTT10=
EXTT11=
EXTT12=
EXTT13=
PLAYORDER=
